<?xml version="1.0" encoding="utf-8"?>
<!-- Generator: Adobe Illustrator 26.0.0, SVG Export Plug-In . SVG Version: 6.00 Build 0)  -->
<svg version="1.1" id="Capa_1" xmlns="http://www.w3.org/2000/svg" xmlns:xlink="http://www.w3.org/1999/xlink" x="0px" y="0px"
	 viewBox="0 0 360.97 124.32" style="enable-background:new 0 0 360.97 124.32;" xml:space="preserve">
<style type="text/css">
	.st0{fill:url(#SVGID_1_);}
	.st1{fill:url(#SVGID_00000039122273798150269970000015278151344999304842_);}
	.st2{fill:url(#SVGID_00000166643805663240320280000004200816981381685931_);}
	.st3{fill:url(#SVGID_00000053504776986037844140000007322398849862347415_);}
	.st4{fill:url(#SVGID_00000005248635618207887050000003585889102162528399_);}
	.st5{fill:url(#SVGID_00000157280788428992814100000015794405574774516897_);}
	.st6{fill:url(#SVGID_00000036945840643776311680000002898310107786259363_);}
	.st7{fill:url(#SVGID_00000129165929780663140000000012412683172878880941_);}
</style>
<g>
	<linearGradient id="SVGID_1_" gradientUnits="userSpaceOnUse" x1="-1.3514" y1="56.5934" x2="449.075" y2="56.5934">
		<stop  offset="0" style="stop-color:#800080"/>
		<stop  offset="1" style="stop-color:#00D6D6"/>
	</linearGradient>
	<path class="st0" d="M33.94,94.95H12.4l9.04-57.27H8.67l3.1-19.44H58.8l-3.1,19.44H42.98L33.94,94.95z"/>
	
		<linearGradient id="SVGID_00000087412230701901966810000005236376023544476301_" gradientUnits="userSpaceOnUse" x1="-1.3514" y1="67.2863" x2="449.075" y2="67.2863">
		<stop  offset="0" style="stop-color:#800080"/>
		<stop  offset="1" style="stop-color:#00D6D6"/>
	</linearGradient>
	<path style="fill:url(#SVGID_00000087412230701901966810000005236376023544476301_);" d="M45.4,94.95l8.51-53.81H72.3l-1.21,7.51
		c2.17-2.77,4.59-4.89,7.25-6.38c2.66-1.49,5.59-2.37,8.77-2.65l-2.99,18.97H83.7c-4.76,0-8.25,0.89-10.46,2.68
		c-2.21,1.79-3.68,5.01-4.41,9.67L65.1,94.95H45.4z"/>
	
		<linearGradient id="SVGID_00000057832574891968708950000013704198551483360408_" gradientUnits="userSpaceOnUse" x1="-1.3514" y1="52.994" x2="449.075" y2="52.994">
		<stop  offset="0" style="stop-color:#800080"/>
		<stop  offset="1" style="stop-color:#00D6D6"/>
	</linearGradient>
	<path style="fill:url(#SVGID_00000057832574891968708950000013704198551483360408_);" d="M83.91,94.95l8.51-53.81h19.49
		l-8.51,53.81H83.91z M115.76,20.7c0,3.82-1.15,7-3.44,9.54c-2.29,2.54-5.19,3.81-8.7,3.81c-2.7,0-4.86-0.88-6.49-2.63
		c-1.63-1.75-2.44-4.06-2.44-6.94c0-3.85,1.16-7.06,3.47-9.62c2.31-2.56,5.2-3.84,8.67-3.84c2.73,0,4.9,0.88,6.52,2.63
		C114.95,15.42,115.76,17.76,115.76,20.7z"/>
	
		<linearGradient id="SVGID_00000082362617370065610310000004884650015571239318_" gradientUnits="userSpaceOnUse" x1="-1.3514" y1="68.0482" x2="449.075" y2="68.0482">
		<stop  offset="0" style="stop-color:#800080"/>
		<stop  offset="1" style="stop-color:#00D6D6"/>
	</linearGradient>
	<path style="fill:url(#SVGID_00000082362617370065610310000004884650015571239318_);" d="M115.18,41.14h19.34l1.1,32.84
		l11.51-32.84h19.34l-23.75,53.81h-20.76L115.18,41.14z"/>
	
		<linearGradient id="SVGID_00000121244385026000534380000012438556831106573745_" gradientUnits="userSpaceOnUse" x1="-1.3514" y1="52.994" x2="449.075" y2="52.994">
		<stop  offset="0" style="stop-color:#800080"/>
		<stop  offset="1" style="stop-color:#00D6D6"/>
	</linearGradient>
	<path style="fill:url(#SVGID_00000121244385026000534380000012438556831106573745_);" d="M161.21,94.95l8.51-53.81h19.49
		l-8.51,53.81H161.21z M193.05,20.7c0,3.82-1.15,7-3.44,9.54c-2.29,2.54-5.19,3.81-8.7,3.81c-2.7,0-4.86-0.88-6.49-2.63
		c-1.63-1.75-2.44-4.06-2.44-6.94c0-3.85,1.16-7.06,3.47-9.62c2.31-2.56,5.2-3.84,8.67-3.84c2.73,0,4.9,0.88,6.52,2.63
		C192.24,15.42,193.05,17.76,193.05,20.7z"/>
	
		<linearGradient id="SVGID_00000146477594432271524080000011316623451023846551_" gradientUnits="userSpaceOnUse" x1="156.7568" y1="56.5934" x2="295.1631" y2="56.5934">
		<stop  offset="0" style="stop-color:#80FFFF"/>
		<stop  offset="1" style="stop-color:#00D6D6"/>
	</linearGradient>
	<path style="fill:url(#SVGID_00000146477594432271524080000011316623451023846551_);" d="M182.85,94.95l28.85-76.72h25.27
		l5.41,76.72h-21.65l0.1-11.3h-12.66l-3.36,11.3H182.85z M212.7,68.15h8.57l0.26-28.43L212.7,68.15z"/>
	
		<linearGradient id="SVGID_00000091715289888868053170000002529181113213803454_" gradientUnits="userSpaceOnUse" x1="156.7568" y1="76.4816" x2="295.1631" y2="76.4816">
		<stop  offset="0" style="stop-color:#80FFFF"/>
		<stop  offset="1" style="stop-color:#00D6D6"/>
	</linearGradient>
	<path style="fill:url(#SVGID_00000091715289888868053170000002529181113213803454_);" d="M241.02,113.34l11.4-72.2h17.5l-0.84,5.57
		c2.52-2.38,5.01-4.16,7.46-5.33c2.45-1.17,4.96-1.76,7.51-1.76c4.62,0,8.16,1.66,10.61,4.99c2.45,3.33,3.68,8.13,3.68,14.4
		c0,10.54-2.13,19.42-6.38,26.64c-4.26,7.22-9.45,10.82-15.58,10.82c-2.63,0-5.01-0.44-7.15-1.31s-3.94-2.17-5.41-3.89l-3.47,22.07
		H241.02z M267.35,73.51c0,2.14,0.32,3.73,0.97,4.78c0.65,1.05,1.62,1.58,2.92,1.58c2,0,3.66-1.65,4.99-4.94
		c1.33-3.29,2-7.41,2-12.35c0-2.14-0.32-3.71-0.95-4.73c-0.63-1.01-1.61-1.52-2.94-1.52c-1.96,0-3.62,1.65-4.96,4.94
		C268.02,64.56,267.35,68.64,267.35,73.51z"/>
	
		<linearGradient id="SVGID_00000182513013172780650020000000731871896205440657_" gradientUnits="userSpaceOnUse" x1="156.7568" y1="76.4816" x2="295.1631" y2="76.4816">
		<stop  offset="0" style="stop-color:#800080"/>
		<stop  offset="1" style="stop-color:#00D6D6"/>
	</linearGradient>
	<path style="fill:url(#SVGID_00000182513013172780650020000000731871896205440657_);" d="M296.14,113.34l11.4-72.2h17.5l-0.84,5.57
		c2.52-2.38,5.01-4.16,7.46-5.33c2.45-1.17,4.96-1.76,7.51-1.76c4.62,0,8.16,1.66,10.61,4.99c2.45,3.33,3.68,8.13,3.68,14.4
		c0,10.54-2.13,19.42-6.38,26.64c-4.26,7.22-9.45,10.82-15.58,10.82c-2.63,0-5.01-0.44-7.15-1.31s-3.94-2.17-5.41-3.89l-3.47,22.07
		H296.14z M322.47,73.51c0,2.14,0.32,3.73,0.97,4.78c0.65,1.05,1.62,1.58,2.92,1.58c2,0,3.66-1.65,4.99-4.94s2-7.41,2-12.35
		c0-2.14-0.32-3.71-0.95-4.73c-0.63-1.01-1.61-1.52-2.94-1.52c-1.96,0-3.62,1.65-4.96,4.94C323.14,64.56,322.47,68.64,322.47,73.51z
		"/>
</g>
</svg>
